<svg xmlns="http://www.w3.org/2000/svg"  viewBox="0 0 100 100" width="400px" height="400px"><path d="M 31 17.654297 C 23.832 17.654297 18 23.486297 18 30.654297 L 18 69.654297 C 18 76.822297 23.832 82.654297 31 82.654297 L 70 82.654297 C 77.168 82.654297 83 76.822297 83 69.654297 L 83 30.654297 C 83 23.485297 77.168 17.654297 70 17.654297 L 31 17.654297 z M 31 19.654297 L 70 19.654297 C 76.065 19.654297 81 24.589297 81 30.654297 L 81 69.654297 C 81 75.719297 76.065 80.654297 70 80.654297 L 31 80.654297 C 24.935 80.654297 20 75.719297 20 69.654297 L 20 30.654297 C 20 24.589297 24.935 19.654297 31 19.654297 z M 47.619141 22.998047 C 47.443141 22.998047 47.280453 23.090234 47.189453 23.240234 L 23.070312 63.240234 C 23.023312 63.319234 22.998047 63.408 22.998047 63.5 L 22.998047 69 C 22.998047 73.688 26.811953 77.501953 31.501953 77.501953 C 36.605953 77.485953 48.065375 77.446906 57.484375 77.378906 C 57.490375 77.378906 57.496953 77.382812 57.501953 77.382812 C 57.506953 77.382812 57.510625 77.378906 57.515625 77.378906 C 65.230625 77.322906 71.571391 77.248344 71.900391 77.152344 C 75.492391 76.099344 78.003906 72.748953 78.003906 69.001953 L 78.003906 31.5 C 78.002906 26.812 74.188 22.998047 69.5 22.998047 L 47.619141 22.998047 z M 47.902344 24.001953 L 69.5 24.001953 C 70.118 24.001953 70.716016 24.084562 71.291016 24.226562 L 60.826172 42.5 C 60.688172 42.741 60.772672 43.047547 61.013672 43.185547 C 61.092672 43.231547 61.179672 43.251953 61.263672 43.251953 C 61.437672 43.251953 61.606219 43.162 61.699219 43 L 72.271484 24.539062 C 75.037484 25.644063 76.998047 28.345 76.998047 31.5 L 76.998047 56.998047 L 70.375 56.998047 C 70.098 56.998047 69.873047 57.223 69.873047 57.5 C 69.873047 57.777 70.098 58.001953 70.375 58.001953 L 76.998047 58.001953 L 76.998047 69 C 76.998047 72.305 74.786203 75.260687 71.658203 76.179688 C 71.168203 76.253687 65.188391 76.318094 57.775391 76.371094 L 46.419922 58.001953 L 65.75 58.001953 C 66.027 58.001953 66.251953 57.777 66.251953 57.5 C 66.251953 57.223 66.027 56.998047 65.75 56.998047 L 53.683594 56.998047 L 59.908203 46.125 C 60.046203 45.884 59.963656 45.577453 59.722656 45.439453 C 59.480656 45.298453 59.173156 45.383 59.035156 45.625 L 56.482422 50.083984 L 44.779297 29.183594 L 47.902344 24.001953 z M 44.181641 30.173828 L 51.923828 43.998047 L 35.845703 43.998047 L 44.181641 30.173828 z M 52.476562 44.982422 L 55.902344 51.101562 L 52.525391 56.998047 L 45.798828 56.998047 L 42.105469 51.023438 L 45.681641 45.007812 C 45.682641 45.006813 45.682594 45.003953 45.683594 45.001953 L 52.376953 45.001953 C 52.411953 45.001953 52.443563 44.989422 52.476562 44.982422 z M 35.240234 45.001953 L 44.515625 45.001953 L 41.166016 50.636719 C 41.087016 50.709719 41.029766 50.799391 41.009766 50.900391 L 26.789062 74.826172 C 25.091062 73.450172 24.001953 71.351 24.001953 69 L 24.001953 63.640625 L 35.240234 45.001953 z M 41.527344 51.998047 L 56.599609 76.378906 C 47.737609 76.438906 37.193 76.480047 31.5 76.498047 C 30.078 76.498047 28.751188 76.093344 27.617188 75.402344 L 41.527344 51.998047 z"/></svg>